<svg xmlns="http://www.w3.org/2000/svg" xmlns:xlink="http://www.w3.org/1999/xlink" width="1300" height="650"><defs><g id="star"><use xlink:href="#pt" transform="rotate(-144)"/><use xlink:href="#pt" transform="rotate(-72)"/><use xlink:href="#pt"/><use xlink:href="#pt" transform="rotate(72)"/><use xlink:href="#pt" transform="rotate(144)"/></g><g id="s5"><use xlink:href="#star" x="-.252"/><use xlink:href="#star" x="-.126"/><use xlink:href="#star"/><use xlink:href="#star" x=".126"/><use xlink:href="#star" x=".252"/></g><g id="s6"><use xlink:href="#s5" x="-.063"/><use xlink:href="#star" x=".315"/></g><g id="x4"><use xlink:href="#s6"/><use xlink:href="#s5" y=".054"/><use xlink:href="#s6" y=".108"/><use xlink:href="#s5" y=".162"/></g><g id="u"><use xlink:href="#x4" y="-.216"/><use xlink:href="#x4"/><use xlink:href="#s6" y=".216"/></g><path id="pt" transform="scale(.0616)" fill="#FFF" d="M-.162 0 0-.5l.162.5z"/><path id="stripe" fill="#B22234" d="M0 0h1300v50H0z"/></defs><path fill="#FFF" d="M0 0h1300v650H0z"/><use xlink:href="#stripe"/><use xlink:href="#stripe" y="100"/><use xlink:href="#stripe" y="200"/><use xlink:href="#stripe" y="300"/><use xlink:href="#stripe" y="400"/><use xlink:href="#stripe" y="500"/><use xlink:href="#stripe" y="600"/><path fill="#3C3B6E" d="M0 0h494v350H0z"/><use xlink:href="#u" transform="matrix(650 0 0 650 247 175)"/><svg viewBox="0 0 60 30" width="1300" height="650"><clipPath id="t"><path d="m30 15 30 15V15H0v15h30z"/></clipPath><clipPath id="uk"><path d="M0 30h60V0z"/></clipPath><g clip-path="url('#uk')"><path d="M0 0v30h60V0z" fill="#00247d"/><path d="m0 0 60 30m0-30L0 30" stroke="#fff" stroke-width="6"/><path d="m0 30 30-15 30 15" clip-path="url('#t')" fill="none" stroke="#cf142b" stroke-width="4"/><path d="M30 0v30M0 15h60" stroke="#fff" stroke-width="10"/><path d="M30 0v30M0 15h60" stroke="#cf142b" stroke-width="6"/></g></svg></svg>